<?xml version="1.0" standalone="no"?>
<!DOCTYPE svg PUBLIC "-//W3C//DTD SVG 20010904//EN"
 "http://www.w3.org/TR/2001/REC-SVG-20010904/DTD/svg10.dtd">
<svg version="1.0" xmlns="http://www.w3.org/2000/svg"
 width="512.000000pt" height="512.000000pt" viewBox="0 0 512.000000 512.000000"
 preserveAspectRatio="xMidYMid meet">
<metadata>
Created by potrace 1.13, written by Peter Selinger 2001-2015
</metadata>
<g transform="translate(0.000000,512.000000) scale(0.100000,-0.100000)"
fill="#000000" stroke="none">
<path d="M2376 4608 c-290 -25 -608 -128 -857 -277 -159 -95 -272 -183 -409
-321 -187 -186 -329 -390 -426 -609 -306 -697 -219 -1476 234 -2086 85 -116
291 -322 407 -407 120 -89 275 -181 394 -234 697 -306 1476 -219 2086 234 116
85 322 291 407 407 89 120 181 275 234 394 306 697 219 1476 -234 2086 -85
116 -291 322 -407 407 -418 310 -916 452 -1429 406z m519 -428 c662 -141 1152
-634 1297 -1300 19 -91 22 -134 22 -325 0 -191 -3 -234 -22 -325 -47 -215
-124 -402 -240 -580 -241 -372 -613 -624 -1062 -722 -91 -19 -134 -22 -325
-22 -191 0 -234 3 -325 22 -215 47 -402 124 -580 240 -373 242 -624 612 -722
1062 -19 91 -22 134 -22 325 0 191 3 234 22 325 98 450 350 821 722 1063 205
133 413 212 659 252 130 21 446 13 576 -15z"/>
<path d="M2165 3590 l-160 -160 115 -117 c63 -65 260 -264 437 -443 l323 -325
-216 -215 c-118 -118 -315 -318 -436 -443 l-222 -228 160 -160 159 -159 603
603 602 602 -603 603 -602 602 -160 -160z"/>
</g>
</svg>
