<?xml version="1.0" encoding="UTF-8" standalone="no"?>
<!-- Created with Inkscape (http://www.inkscape.org/) -->

<svg
   xmlns:dc="http://purl.org/dc/elements/1.1/"
   xmlns:cc="http://creativecommons.org/ns#"
   xmlns:rdf="http://www.w3.org/1999/02/22-rdf-syntax-ns#"
   xmlns:svg="http://www.w3.org/2000/svg"
   xmlns="http://www.w3.org/2000/svg"
   xmlns:sodipodi="http://sodipodi.sourceforge.net/DTD/sodipodi-0.dtd"
   xmlns:inkscape="http://www.inkscape.org/namespaces/inkscape"
   version="1.1"
   id="svg4523"
   xml:space="preserve"
   width="1066.6667"
   height="1066.6667"
   viewBox="0 0 1066.6667 1066.6667"
   sodipodi:docname="medals-logo.svg"
   inkscape:version="0.92.2 5c3e80d, 2017-08-06"><metadata
     id="metadata4529"><rdf:RDF><cc:Work
         rdf:about=""><dc:format>image/svg+xml</dc:format><dc:type
           rdf:resource="http://purl.org/dc/dcmitype/StillImage" /><dc:title></dc:title></cc:Work></rdf:RDF></metadata><defs
     id="defs4527" /><sodipodi:namedview
     pagecolor="#ffffff"
     bordercolor="#666666"
     borderopacity="1"
     objecttolerance="10"
     gridtolerance="10"
     guidetolerance="10"
     inkscape:pageopacity="0"
     inkscape:pageshadow="2"
     inkscape:window-width="1916"
     inkscape:window-height="1041"
     id="namedview4525"
     showgrid="false"
     inkscape:zoom="0.37968747"
     inkscape:cx="345.00974"
     inkscape:cy="523.237"
     inkscape:window-x="0"
     inkscape:window-y="18"
     inkscape:window-maximized="0"
     inkscape:current-layer="g4531" /><g
     id="g4531"
     inkscape:groupmode="layer"
     inkscape:label="ink_ext_XXXXXX"
     transform="matrix(1.3333333,0,0,-1.3333333,0,1066.6667)"><g
       id="g6789"
       transform="matrix(3.6095517,0,0,3.6095517,-1043.7665,-1127.4491)"><path
         d="m 443.914,485.407 h -87.828 v 28.391 h 87.828 v -28.391"
         style="fill:#005eb3;fill-opacity:1;fill-rule:nonzero;stroke:none;stroke-width:0.1"
         id="path4657"
         inkscape:connector-curvature="0" /><path
         sodipodi:nodetypes="ccczc"
         d="m 419.719,385.142 -35.327,19.212 59.522,109.444 c 0,0 30.67068,-4.95629 35.327,-19.213 4.65632,-14.25671 -59.522,-109.443 -59.522,-109.443 z"
         style="fill:#0072d9;fill-opacity:1;fill-rule:nonzero;stroke:none;stroke-width:0.1"
         id="path4659"
         inkscape:connector-curvature="0" /><path
         sodipodi:nodetypes="ccczc"
         d="m 380.281,385.142 35.327,19.212 -59.522,109.444 c 0,0 -30.26074,-4.97145 -35.327,-19.213 -5.06626,-14.24155 59.522,-109.443 59.522,-109.443 z"
         style="fill:#0072d9;fill-opacity:1;fill-rule:nonzero;stroke:none;stroke-width:0.1"
         id="path4661"
         inkscape:connector-curvature="0" /><path
         d="m 457.00185,390.64603 c 0,31.48152 -25.52034,57.00186 -57.00185,57.00186 -31.48151,0 -57.00185,-25.52034 -57.00185,-57.00186 0,-31.48151 25.52034,-57.00292 57.00185,-57.00292 31.48151,0 57.00185,25.52141 57.00185,57.00292"
         style="fill:#ffd34d;fill-opacity:1;fill-rule:nonzero;stroke:none;stroke-width:0.10652561"
         id="path4663"
         inkscape:connector-curvature="0" /><path
         d="m 400,438.93113 c -26.62524,0 -48.28505,-21.66096 -48.28505,-48.28505 0,-26.62525 21.65981,-48.28621 48.28505,-48.28621 26.62524,0 48.28505,21.66096 48.28505,48.28621 0,26.62409 -21.65981,48.28505 -48.28505,48.28505 z m 0,-100.62847 c -28.86141,0 -52.34226,23.48086 -52.34226,52.34342 0,28.8614 23.48085,52.34226 52.34226,52.34226 28.86141,0 52.34226,-23.48086 52.34226,-52.34226 0,-28.86256 -23.48085,-52.34342 -52.34226,-52.34342"
         style="fill:#f2ba49;fill-opacity:1;fill-rule:nonzero;stroke:none;stroke-width:0.60392475;stroke-miterlimit:4;stroke-dasharray:none"
         id="path4665"
         inkscape:connector-curvature="0" /><path
         sodipodi:nodetypes="cccccc"
         d="m 436.93739,399.81704 c 3.82534,-20.97464 -10.06249,-41.0612 -31.03599,-44.88653 -19.79898,-3.6103 -38.797,9.51785 -42.41089,29.3199 -3.41704,18.71917 8.99128,36.65916 27.71199,40.08339 17.70497,3.22815 34.65705,-8.50161 37.88174,-26.17762 l 7.85315,1.66086"
         style="fill:#f2ba49;fill-opacity:1;fill-rule:nonzero;stroke:none;stroke-width:0.12815201"
         id="path6153"
         inkscape:connector-curvature="0" /></g></g></svg>